#!OML:ASF H:\Dans Jumps\Project 1\Capture day 1\Session 1\subject.ASF
:FULLY-SPECIFIED
:DEGREES
246
root 0.595075 15.3217 -16.6215 22.998 -1.30148 -1.91105
lowerback 23.6948 0.199627 -0.352122
upperback 12.2487 0.206688 1.62149
thorax 0.249744 0.0136567 1.89366
lowerneck -15.9837 0.995886 -0.98378
upperneck 13.8587 1.68367 -0.637528
head 6.85757 0.695848 0.129229
rclavicle 5.95112e-015 -1.27657e-014
rhumerus -20.5791 -4.16755 -82.7396
rradius 28.3491
rwrist 22.5325
rhand -18.282 -24.9821
rfingers 7.12502
rthumb 7.99815 -54.8108
lclavicle 5.95112e-015 -1.27657e-014
lhumerus -21.1988 -10.1795 91.2928
lradius 23.0227
lwrist 18.5069
lhand -30.2248 -6.4083
lfingers 7.12502
lthumb -3.53456 23.5421
rfemur -67.8118 -5.10543 22.5381
rtibia 67.0948
rfoot -20.0232 -7.87324
rtoes 3.48644
lfemur -67.2892 8.42554 -22.929
ltibia 66.8757
lfoot -19.2639 10.8897
ltoes 0.391927
247
root 0.594232 15.3173 -16.6214 22.9967 -1.31743 -1.91923
lowerback 23.7134 0.19881 -0.349536
upperback 12.2511 0.205879 1.61781
thorax 0.243464 0.013419 1.88848
lowerneck -15.9701 1.00098 -0.966347
upperneck 13.8229 1.68897 -0.655544
head 6.84395 0.698071 0.1209
rclavicle -3.81418e-015 1.46914e-014
rhumerus -20.6106 -4.23551 -82.7201
rradius 28.3102
rwrist 22.5522
rhand -18.241 -25.0025
rfingers 7.12502
rthumb 8.03772 -54.8296
lclavicle -3.81418e-015 1.46914e-014
lhumerus -21.2452 -10.1278 91.3083
lradius 22.9503
lwrist 18.466
lhand -30.2029 -6.37061
lfingers 7.12502
lthumb -3.51336 23.5802
rfemur -67.8435 -5.08 22.5417
rtibia 67.1522
rfoot -20.0435 -7.89239
rtoes 3.46175
lfemur -67.3202 8.41141 -22.9054
ltibia 66.9436
lfoot -19.2839 10.9445
ltoes 0.392018
248
root 0.59337 15.3137 -16.6211 22.9946 -1.33184 -1.92705
lowerback 23.73 0.198494 -0.350112
upperback 12.2538 0.20517 1.61673
thorax 0.238589 0.0129855 1.88787
lowerneck -15.9428 1.00534 -0.955912
upperneck 13.7796 1.69393 -0.669549
head 6.82549 0.70023 0.114866
rclavicle -4.42296e-015 -4.22417e-015
rhumerus -20.6425 -4.29502 -82.6976
rradius 28.2713
rwrist 22.5779
rhand -18.2166 -25.0152
rfingers 7.12502
rthumb 8.06125 -54.8415
lclavicle -4.42296e-015 -4.22417e-015
lhumerus -21.2894 -10.0796 91.3263
lradius 22.8803
lwrist 18.4192
lhand -30.1885 -6.36682
lfingers 7.12502
lthumb -3.49951 23.5842
rfemur -67.8674 -5.05385 22.5437
rtibia 67.2001
rfoot -20.0621 -7.90991
rtoes 3.44619
lfemur -67.3439 8.3966 -22.8815
ltibia 67.0014
lfoot -19.3011 10.9978
ltoes 0.390189
249
root 0.592502 15.3107 -16.6207 22.9939 -1.34685 -1.93725
lowerback 23.7428 0.199198 -0.351618
upperback 12.2565 0.205574 1.6168
thorax 0.235357 0.0130028 1.88877
lowerneck -15.9167 1.00927 -0.947947
upperneck 13.7427 1.69799 -0.677797
head 6.80926 0.70228 0.111034
rclavicle 2.54693e-016 6.1002e-015
rhumerus -20.6766 -4.34845 -82.6749
rradius 28.2353
rwrist 22.6099
rhand -18.1962 -25.0292
rfingers 7.12502
rthumb 8.08094 -54.8547
lclavicle 2.54693e-016 6.1002e-015
lhumerus -21.3343 -10.0336 91.3447
lradius 22.8162
lwrist 18.3638
lhand -30.1921 -6.40504
lfingers 7.12502
lthumb -3.50295 23.5459
rfemur -67.8867 -5.02394 22.5461
rtibia 67.2393
rfoot -20.0777 -7.9275
rtoes 3.4369
lfemur -67.3631 8.38188 -22.8545
ltibia 67.051
lfoot -19.3154 11.0528
ltoes 0.38429
250
root 0.591622 15.3083 -16.6202 22.9931 -1.36188 -1.94674
lowerback 23.754 0.200239 -0.356526
upperback 12.2579 0.205771 1.61723
thorax 0.231515 0.0127643 1.89202
lowerneck -15.8946 1.0111 -0.944147
upperneck 13.7177 1.69912 -0.678715
head 6.79744 0.703235 0.110013
rclavicle 3.27995e-015 -9.63484e-015
rhumerus -20.7163 -4.39618 -82.6529
rradius 28.2021
rwrist 22.6559
rhand -18.1863 -25.0396
rfingers 7.12502
rthumb 8.09053 -54.8647
lclavicle 3.27995e-015 -9.63484e-015
lhumerus -21.3837 -9.98227 91.3611
lradius 22.7613
lwrist 18.3007
lhand -30.1959 -6.47201
lfingers 7.12502
lthumb -3.50664 23.4789
rfemur -67.9006 -4.99372 22.5471
rtibia 67.2707
rfoot -20.0912 -7.94332
rtoes 3.43328
lfemur -67.3764 8.36455 -22.8262
ltibia 67.0929
lfoot -19.3258 11.1085
ltoes 0.372876
251
root 0.590735 15.3064 -16.6194 22.9921 -1.37609 -1.95757
lowerback 23.764 0.200432 -0.362296
upperback 12.2567 0.20478 1.61812
thorax 0.225485 0.011916 1.89652
lowerneck -15.8749 1.01166 -0.945731
upperneck 13.7048 1.69866 -0.671987
head 6.78985 0.70371 0.112235
rclavicle 8.97637e-015 -1.05729e-014
rhumerus -20.766 -4.43332 -82.6341
rradius 28.1796
rwrist 22.6941
rhand -18.1721 -25.0626
rfingers 7.12502
rthumb 8.10427 -54.8872
lclavicle 8.97637e-015 -1.05729e-014
lhumerus -21.4457 -9.91849 91.3747
lradius 22.7204
lwrist 18.2362
lhand -30.1987 -6.55195
lfingers 7.12502
lthumb -3.5093 23.3989
rfemur -67.9096 -4.96422 22.55
rtibia 67.2961
rfoot -20.104 -7.95683
rtoes 3.43984
lfemur -67.3841 8.34505 -22.7942
ltibia 67.1288
lfoot -19.3343 11.1632
ltoes 0.362943
252
root 0.589871 15.3049 -16.6184 22.9893 -1.38858 -1.96785
lowerback 23.7751 0.199805 -0.368455
upperback 12.2527 0.202743 1.61908
thorax 0.215788 0.0105819 1.90155
lowerneck -15.8556 1.01119 -0.949137
upperneck 13.7009 1.69692 -0.662905
head 6.78518 0.703598 0.115416
rclavicle -4.30804e-015 1.00681e-014
rhumerus -20.8299 -4.46237 -82.6177
rradius 28.1711
rwrist 22.7194
rhand -18.1566 -25.0839
rfingers 7.12502
rthumb 8.11921 -54.908
lclavicle -4.30804e-015 1.00681e-014
lhumerus -21.5231 -9.84557 91.385
lradius 22.6954
lwrist 18.181
lhand -30.1929 -6.63174
lfingers 7.12502
lthumb -3.5037 23.3192
rfemur -67.9125 -4.93775 22.5535
rtibia 67.3164
rfoot -20.1164 -7.96913
rtoes 3.45199
lfemur -67.3856 8.32236 -22.7602
ltibia 67.1587
lfoot -19.3406 11.215
ltoes 0.359714
253
root 0.589003 15.3037 -16.6171 22.984 -1.40055 -1.97572
lowerback 23.7895 0.198643 -0.375905
upperback 12.2453 0.199819 1.6187
thorax 0.200759 0.00886617 1.9061
lowerneck -15.8356 1.01179 -0.949531
upperneck 13.7022 1.69655 -0.657095
head 6.78213 0.703963 0.117208
rclavicle -1.81469e-015 8.86164e-015
rhumerus -20.913 -4.48531 -82.605
rradius 28.1837
rwrist 22.7156
rhand -18.1385 -25.0913
rfingers 7.12502
rthumb 8.13665 -54.9146
lclavicle -1.81469e-015 8.86164e-015
lhumerus -21.6193 -9.77167 91.392
lradius 22.6858
lwrist 18.1513
lhand -30.1729 -6.70641
lfingers 7.12502
lthumb -3.48446 23.2449
rfemur -67.9103 -4.914 22.5554
rtibia 67.3329
rfoot -20.1263 -7.98186
rtoes 3.45972
lfemur -67.3808 8.29863 -22.7281
ltibia 67.1836
lfoot -19.343 11.2642
ltoes 0.350839
254
root 0.588148 15.3028 -16.6157 22.9761 -1.41146 -1.98363
lowerback 23.8064 0.196977 -0.381034
upperback 12.235 0.196753 1.61791
thorax 0.181311 0.00725538 1.90891
lowerneck -15.8105 1.01248 -0.950801
upperneck 13.7016 1.69642 -0.651355
head 6.7776 0.704422 0.119107
rclavicle 1.54058e-015 -3.64024e-015
rhumerus -21.0224 -4.49572 -82.5944
rradius 28.2268
rwrist 22.6694
rhand -18.1173 -25.0816
rfingers 7.12502
rthumb 8.15713 -54.9042
lclavicle 1.54058e-015 -3.64024e-015
lhumerus -21.7336 -9.69844 91.3968
lradius 22.6842
lwrist 18.1505
lhand -30.1466 -6.78291
lfingers 7.12502
lthumb -3.45907 23.1688
rfemur -67.9025 -4.89242 22.5579
rtibia 67.3459
rfoot -20.1347 -7.99401
rtoes 3.46059
lfemur -67.3702 8.27569 -22.6957
ltibia 67.2036
lfoot -19.3426 11.3102
ltoes 0.338796
